<?xml version="1.0" standalone="no"?>
<!DOCTYPE svg PUBLIC "-//W3C//DTD SVG 20010904//EN"
 "http://www.w3.org/TR/2001/REC-SVG-20010904/DTD/svg10.dtd">
<svg version="1.0" xmlns="http://www.w3.org/2000/svg"
 width="512.000000pt" height="512.000000pt" viewBox="0 0 512.000000 512.000000"
 preserveAspectRatio="xMidYMid meet">

<g transform="translate(0.000000,512.000000) scale(0.100000,-0.100000)"
fill="#000000" stroke="none">
<path d="M1897 4550 c-65 -11 -171 -46 -226 -75 -80 -42 -125 -76 -341 -265
-220 -193 -250 -215 -389 -296 -102 -59 -213 -164 -274 -259 -62 -97 -519
-1015 -545 -1095 -54 -167 -56 -326 -5 -485 9 -27 60 -149 113 -270 54 -121
107 -252 119 -290 28 -88 51 -239 51 -330 1 -173 60 -318 179 -435 118 -116
217 -158 429 -181 207 -22 309 0 402 87 70 66 102 137 108 244 12 214 -49 635
-129 894 -11 38 -18 70 -16 72 6 6 90 -193 123 -290 36 -105 70 -245 93 -384
26 -153 54 -214 133 -287 123 -114 315 -136 485 -56 l59 28 38 -19 c58 -30
182 -58 256 -58 74 0 198 28 256 58 l38 19 59 -28 c167 -79 361 -58 480 51 80
73 113 143 137 291 26 151 59 287 101 405 37 105 110 276 116 270 2 -2 -7 -42
-21 -87 -58 -191 -98 -418 -117 -654 -22 -274 -1 -374 101 -469 93 -87 195
-109 402 -87 214 23 314 65 429 180 120 121 178 263 179 441 0 92 22 233 51
325 12 39 65 169 119 290 53 121 104 243 113 270 51 159 49 318 -5 485 -26 80
-483 998 -545 1095 -69 106 -171 199 -307 279 -92 55 -164 110 -334 258 -290
253 -362 300 -517 342 -126 34 -237 31 -497 -12 l-238 -40 -236 39 c-234 39
-329 45 -427 29z m419 -191 l244 -41 244 41 c268 45 317 48 421 26 135 -28
208 -75 455 -291 234 -204 291 -248 400 -305 42 -22 95 -64 151 -119 l87 -86
260 -520 c143 -285 267 -544 276 -574 10 -30 20 -94 23 -141 9 -128 -13 -206
-128 -466 -144 -326 -174 -427 -185 -633 -7 -149 -20 -212 -56 -284 -59 -117
-181 -203 -323 -228 -38 -6 -122 -12 -186 -12 -109 -1 -118 0 -156 26 -25 17
-49 44 -63 74 -22 44 -23 54 -17 193 11 236 46 467 103 666 14 50 69 230 121
400 l96 310 -7 140 c-18 401 -106 766 -281 1165 -21 47 -39 87 -40 88 -4 4
-125 -48 -138 -58 -4 -4 17 -64 47 -133 146 -333 221 -640 248 -1003 l12 -161
-81 -109 c-111 -152 -147 -209 -229 -368 l-72 -140 -50 160 c-28 87 -79 249
-112 359 -85 275 -107 313 -251 455 -168 166 -178 191 -209 535 -11 127 -28
251 -36 276 -31 98 -95 168 -192 212 -71 32 -198 31 -272 -4 -68 -32 -132 -93
-163 -156 -33 -65 -33 -67 -57 -328 -12 -126 -26 -249 -31 -273 -19 -87 -58
-144 -178 -262 -144 -141 -165 -179 -250 -455 -34 -110 -85 -272 -113 -359
l-50 -160 -72 140 c-82 160 -118 217 -229 368 l-81 109 12 163 c26 353 99 652
238 978 36 82 61 153 57 156 -13 11 -134 62 -138 58 -2 -1 -31 -67 -64 -146
-140 -328 -222 -651 -251 -987 -20 -239 -21 -234 84 -574 52 -168 106 -346
120 -396 56 -200 93 -435 103 -666 6 -139 5 -149 -17 -193 -14 -30 -38 -57
-63 -74 -38 -26 -47 -27 -156 -26 -64 0 -147 6 -186 12 -142 25 -264 111 -323
228 -36 72 -49 135 -56 284 -11 204 -42 312 -185 634 -112 250 -120 277 -127
391 -11 166 -6 177 289 770 236 472 271 537 323 593 65 72 132 124 219 170 84
45 161 105 390 307 218 191 298 242 425 269 102 22 165 19 426 -25z m320 -698
c39 -18 84 -65 97 -103 3 -10 16 -122 27 -250 36 -401 55 -443 301 -676 31
-29 68 -76 82 -105 14 -29 89 -256 167 -506 l141 -453 -25 -97 c-14 -53 -35
-150 -46 -216 -11 -66 -23 -129 -26 -140 -12 -41 -59 -97 -103 -123 -40 -24
-56 -27 -126 -26 -164 2 -247 61 -393 281 l-92 139 0 111 0 110 46 13 c87 25
148 76 269 226 146 182 160 208 160 304 0 100 -26 157 -108 233 -76 71 -211
141 -317 163 -205 43 -437 -25 -589 -174 -101 -99 -128 -230 -71 -342 26 -51
208 -282 254 -322 44 -39 104 -74 154 -88 l42 -13 0 -111 0 -110 -90 -136
c-101 -153 -152 -207 -226 -244 -142 -71 -291 -53 -362 43 -32 43 -39 67 -57
178 -8 54 -29 153 -46 219 l-30 122 141 453 c78 250 154 478 168 508 15 30 51
76 81 105 134 125 179 178 215 248 50 101 62 159 86 426 11 128 24 240 27 250
23 65 104 122 173 122 19 0 54 -9 76 -19z m39 -1276 c90 -23 163 -63 221 -119
96 -93 90 -127 -56 -308 -136 -170 -170 -193 -280 -193 -110 0 -144 23 -280
193 -146 181 -152 215 -56 308 115 112 295 159 451 119z m-38 -1283 c39 -59
68 -111 63 -116 -4 -4 -41 -13 -82 -19 -57 -8 -87 -7 -136 4 -35 8 -63 19 -63
24 0 12 134 214 141 214 3 0 37 -48 77 -107z"/>
<path d="M1680 3347 c-49 -16 -133 -102 -148 -153 -28 -94 -8 -169 63 -239 51
-52 102 -75 165 -75 63 0 114 23 165 75 98 97 101 222 8 325 -65 72 -158 97
-253 67z m135 -172 c50 -49 15 -135 -55 -135 -41 0 -80 39 -80 80 0 41 39 80
80 80 19 0 40 -9 55 -25z"/>
<path d="M3280 3347 c-49 -16 -133 -102 -148 -153 -28 -94 -8 -169 63 -239 51
-52 102 -75 165 -75 63 0 114 23 165 75 98 97 101 222 8 325 -65 72 -158 97
-253 67z m135 -172 c16 -15 25 -36 25 -55 0 -19 -9 -40 -25 -55 -15 -16 -36
-25 -55 -25 -19 0 -40 9 -55 25 -16 15 -25 36 -25 55 0 19 9 40 25 55 15 16
36 25 55 25 19 0 40 -9 55 -25z"/>
</g>
</svg>
