<?xml version="1.0" standalone="no"?>
<!DOCTYPE svg PUBLIC "-//W3C//DTD SVG 20010904//EN"
 "http://www.w3.org/TR/2001/REC-SVG-20010904/DTD/svg10.dtd">
<svg version="1.0" xmlns="http://www.w3.org/2000/svg"
 width="512.000000pt" height="512.000000pt" viewBox="0 0 512.000000 512.000000"
 preserveAspectRatio="xMidYMid meet">

<g transform="translate(0.000000,512.000000) scale(0.100000,-0.100000)"
fill="#000000" stroke="none">
<path d="M1685 4355 l-440 -123 -273 -156 c-149 -85 -319 -178 -376 -205 -288
-135 -426 -279 -426 -442 0 -152 90 -328 256 -499 112 -116 125 -145 135 -297
9 -141 20 -187 62 -266 79 -149 238 -206 382 -137 53 25 169 136 181 172 4 14
35 -93 90 -313 l83 -334 1 -300 c0 -237 3 -313 15 -360 46 -176 184 -314 360
-360 117 -30 303 -11 389 39 51 30 108 91 136 146 l20 40 50 -25 c140 -71 320
-71 460 0 l50 25 20 -40 c28 -55 85 -116 136 -146 86 -50 272 -69 389 -39 132
35 251 127 313 243 57 107 62 145 62 477 l1 300 83 334 c55 220 86 327 90 313
12 -36 128 -147 181 -172 144 -69 303 -12 382 137 42 79 53 125 62 266 10 152
23 180 140 302 150 156 241 328 249 471 4 73 1 88 -22 140 -52 113 -191 226
-401 325 -55 26 -224 118 -375 204 l-275 157 -445 124 -445 124 -430 -1 -430
-1 -440 -123z m1624 -131 c190 -52 370 -102 399 -110 l52 -15 0 -475 0 -474
-178 207 c-197 230 -222 255 -302 292 -48 22 -68 26 -160 26 -105 0 -105 0
-203 -47 -93 -45 -97 -46 -97 -25 0 12 -7 88 -14 169 -16 168 -32 210 -103
264 -114 87 -282 51 -352 -75 -18 -34 -26 -71 -37 -184 -7 -78 -14 -154 -14
-169 l0 -27 -97 47 c-98 47 -98 47 -203 47 -92 0 -112 -4 -160 -26 -80 -37
-105 -62 -302 -292 l-178 -207 0 474 0 475 53 15 c28 8 194 53 367 101 173 47
326 90 340 95 14 5 209 9 434 9 l409 1 346 -96z m-2119 -1234 c-21 -248 -88
-454 -181 -555 -77 -84 -142 -98 -202 -45 -56 49 -79 116 -87 260 -11 185 -40
249 -169 384 -100 104 -137 155 -186 258 -36 75 -45 140 -26 191 27 69 142
156 326 243 61 29 204 107 320 173 l210 120 3 -452 c2 -264 -1 -504 -8 -577z
m2970 896 c107 -62 256 -142 330 -179 273 -134 341 -231 276 -390 -41 -100
-88 -167 -188 -274 -91 -96 -137 -165 -160 -238 -5 -16 -13 -87 -18 -156 -10
-146 -32 -211 -87 -259 -60 -53 -125 -39 -202 45 -90 98 -158 302 -181 540 -5
61 -10 321 -10 578 l0 468 23 -12 c12 -7 110 -62 217 -123z m-1545 9 c14 -13
25 -35 25 -47 0 -13 16 -208 35 -432 19 -225 35 -419 35 -432 l0 -24 -150 0
-150 0 0 24 c0 13 16 207 35 432 19 225 35 419 35 432 0 33 43 72 80 72 19 0
40 -9 55 -25z m-446 -430 c79 -39 111 -60 111 -72 0 -10 -7 -115 -17 -234
l-17 -217 -55 -27 c-84 -41 -187 -112 -257 -177 l-63 -59 -164 219 -165 218
145 169 c79 92 155 177 168 187 41 32 88 47 146 48 48 0 72 -8 168 -55z m1037
40 c54 -23 72 -40 227 -220 l145 -169 -165 -218 -164 -219 -66 62 c-73 68
-175 137 -256 175 l-53 24 -17 217 c-10 120 -17 226 -17 236 0 12 32 33 111
72 123 60 184 70 255 40z m-1446 -953 c0 -4 -37 -64 -82 -132 -46 -69 -114
-186 -152 -260 l-70 -135 -48 190 -47 190 -1 344 0 344 200 -266 c110 -147
200 -270 200 -275z m1952 -337 l-48 -190 -70 135 c-38 74 -106 191 -152 260
-45 69 -81 130 -80 136 2 6 91 128 198 271 l195 260 2 -341 3 -341 -48 -190z
m-880 568 c146 -58 330 -227 460 -423 91 -135 198 -340 263 -498 l46 -114 -3
-311 c-3 -308 -3 -313 -28 -362 -31 -64 -101 -134 -165 -165 -44 -21 -64 -24
-160 -25 -192 0 -234 37 -290 258 -50 198 -119 359 -215 503 l-48 71 36 19
c61 33 158 138 194 211 27 56 33 79 33 135 0 58 -4 72 -30 110 -64 90 -214
136 -415 125 -218 -12 -333 -84 -347 -218 -10 -103 68 -242 184 -330 32 -23
62 -46 67 -50 5 -4 -13 -41 -40 -81 -95 -145 -178 -345 -218 -528 -23 -107
-63 -172 -123 -201 -41 -21 -63 -24 -153 -24 -99 0 -110 2 -172 33 -76 37
-120 82 -157 162 -26 55 -26 55 -29 362 l-3 307 46 113 c178 434 435 779 672
897 32 16 65 31 73 34 8 3 120 6 247 6 196 1 239 -2 275 -16z m-140 -637 c70
-16 108 -40 108 -67 0 -29 -36 -94 -77 -140 -43 -48 -127 -99 -163 -99 -82 0
-240 158 -240 239 0 63 220 103 372 67z m-83 -592 c88 -136 193 -388 178 -428
-9 -23 -100 -64 -171 -77 -39 -7 -73 -7 -112 0 -71 13 -162 54 -171 77 -9 23
38 162 91 271 43 87 125 223 136 223 3 0 25 -30 49 -66z"/>
<path d="M1855 3266 c-101 -44 -125 -178 -46 -257 112 -113 296 -12 267 146
-18 94 -131 151 -221 111z"/>
<path d="M3135 3266 c-101 -44 -125 -178 -46 -257 112 -113 296 -12 267 146
-18 94 -131 151 -221 111z"/>
<path d="M2390 2621 c-78 -17 -225 -68 -259 -90 -11 -7 -6 -21 24 -72 21 -35
40 -66 41 -68 2 -2 36 10 76 27 109 44 172 57 288 56 117 0 181 -12 288 -56
40 -17 74 -29 76 -27 9 12 76 127 76 131 0 10 -155 76 -215 93 -95 26 -292 29
-395 6z"/>
<path d="M3280 1680 l0 -80 80 0 80 0 0 80 0 80 -80 0 -80 0 0 -80z"/>
<path d="M2000 1600 l0 -80 80 0 80 0 0 80 0 80 -80 0 -80 0 0 -80z"/>
<path d="M1680 1440 l0 -80 80 0 80 0 0 80 0 80 -80 0 -80 0 0 -80z"/>
<path d="M3040 1440 l0 -80 80 0 80 0 0 80 0 80 -80 0 -80 0 0 -80z"/>
<path d="M1840 1120 l0 -80 80 0 80 0 0 80 0 80 -80 0 -80 0 0 -80z"/>
<path d="M3280 1120 l0 -80 80 0 80 0 0 80 0 80 -80 0 -80 0 0 -80z"/>
</g>
</svg>
