<?xml version="1.0" standalone="no"?>
<!DOCTYPE svg PUBLIC "-//W3C//DTD SVG 20010904//EN"
 "http://www.w3.org/TR/2001/REC-SVG-20010904/DTD/svg10.dtd">
<svg version="1.0" xmlns="http://www.w3.org/2000/svg"
 width="512.000000pt" height="512.000000pt" viewBox="0 0 512.000000 512.000000"
 preserveAspectRatio="xMidYMid meet">

<g transform="translate(0.000000,512.000000) scale(0.100000,-0.100000)"
fill="#000000" stroke="none">
<path d="M356 4526 c-73 -28 -124 -96 -163 -221 -29 -94 -24 -381 10 -645 15
-113 31 -271 37 -351 15 -217 57 -345 174 -526 62 -96 88 -151 136 -288 23
-66 55 -139 71 -161 75 -109 206 -168 402 -181 l93 -6 12 -116 c51 -509 339
-929 791 -1156 202 -101 406 -148 641 -148 236 0 438 46 641 149 452 226 740
647 791 1155 l12 116 95 6 c196 13 325 71 400 181 16 22 48 95 71 161 48 137
74 192 136 288 117 181 159 309 174 526 6 80 22 236 36 346 49 387 43 591 -22
735 -98 219 -297 197 -658 -71 -146 -108 -645 -526 -744 -623 -87 -84 -172
-200 -191 -259 l-12 -35 -97 48 c-119 59 -214 92 -352 121 -86 19 -136 23
-280 23 -144 0 -194 -4 -280 -23 -138 -29 -233 -62 -352 -121 l-97 -48 -11 33
c-18 56 -89 156 -164 234 -80 82 -601 521 -766 645 -251 188 -418 255 -534
212z m220 -197 c108 -53 277 -182 641 -487 347 -291 426 -373 462 -483 14 -43
9 -56 -29 -87 l-28 -22 -44 82 c-63 120 -156 211 -273 267 -111 53 -159 89
-301 228 -61 59 -134 121 -163 137 -133 72 -288 29 -321 -89 -18 -65 -8 -198
30 -389 39 -200 75 -307 156 -473 63 -129 94 -225 94 -292 0 -127 119 -244
288 -283 56 -14 58 -16 46 -90 l-7 -38 -61 0 c-77 0 -182 22 -234 49 -60 30
-91 76 -132 194 -45 128 -77 195 -175 362 -97 166 -114 221 -126 405 -5 80
-22 237 -36 350 -47 365 -36 620 30 690 27 30 79 22 183 -31z m4161 12 c41
-60 48 -105 47 -291 0 -126 -8 -232 -27 -380 -15 -113 -31 -270 -36 -350 -12
-184 -29 -239 -126 -405 -94 -161 -144 -265 -180 -375 -15 -47 -38 -100 -52
-117 -50 -67 -174 -112 -309 -113 l-61 0 -7 37 c-12 75 -10 77 47 91 168 39
287 156 287 283 0 67 31 163 94 292 81 166 116 273 156 473 41 205 49 337 26
398 -32 82 -105 122 -207 113 -83 -7 -147 -47 -264 -161 -143 -141 -190 -178
-314 -241 -131 -67 -201 -135 -269 -264 l-43 -81 -29 22 c-38 28 -43 43 -29
87 36 109 121 197 465 485 432 361 589 476 707 518 71 24 97 20 124 -21z
m-3974 -518 c18 -9 88 -71 157 -137 135 -131 200 -179 317 -233 99 -46 152
-101 208 -217 50 -101 53 -117 28 -137 -61 -50 -189 -259 -250 -409 -43 -104
-43 -105 -75 -102 -46 4 -146 51 -169 80 -10 14 -19 40 -19 59 0 85 -32 191
-105 343 -95 200 -122 288 -165 537 -20 121 -26 214 -13 226 12 12 53 7 86
-10z m3685 -33 c6 -74 -39 -328 -84 -480 -14 -47 -59 -155 -99 -240 -73 -152
-105 -258 -105 -343 0 -19 -9 -45 -19 -59 -23 -29 -123 -76 -169 -80 -32 -3
-33 -2 -73 97 -22 54 -54 124 -71 155 -46 81 -144 222 -173 250 -14 13 -25 30
-25 39 0 8 20 56 45 107 56 115 106 168 209 217 122 59 181 102 311 228 135
131 176 161 220 157 28 -3 30 -6 33 -48z m-1708 -365 c52 -8 131 -24 175 -37
l80 -23 27 -55 c37 -74 51 -187 38 -300 -14 -114 -42 -209 -105 -365 -101
-249 -138 -389 -139 -530 -1 -183 58 -292 278 -523 190 -199 246 -293 246
-407 0 -40 -2 -42 -79 -93 -424 -280 -978 -280 -1402 0 -77 51 -79 53 -79 93
0 115 55 206 243 403 199 209 258 306 277 455 18 146 -14 292 -131 589 -127
325 -148 523 -71 678 l27 55 80 23 c176 51 363 64 535 37z m-841 -245 c-22
-154 14 -336 119 -601 100 -252 115 -314 116 -454 1 -117 0 -122 -32 -188 -26
-52 -65 -101 -172 -212 -172 -180 -231 -258 -272 -359 l-33 -78 -38 43 c-101
116 -190 276 -242 434 -154 469 -23 980 339 1322 70 66 215 177 223 169 1 -1
-3 -35 -8 -76z m1432 -1 c87 -64 223 -207 286 -299 180 -267 255 -593 208
-900 -36 -241 -143 -479 -292 -649 l-38 -43 -33 78 c-41 101 -100 179 -272
359 -107 111 -146 160 -172 212 -32 66 -33 71 -32 193 1 143 9 177 112 441
121 308 151 481 115 663 l-5 30 28 -18 c16 -11 59 -41 95 -67z"/>
<path d="M2384 1746 c-213 -49 -278 -198 -172 -398 28 -53 117 -150 163 -176
27 -16 9 -27 -72 -43 l-63 -13 0 -79 0 -79 58 7 c73 9 154 37 215 75 l47 29
47 -29 c54 -35 147 -67 221 -76 l52 -7 0 80 0 80 -42 7 c-59 9 -108 26 -108
37 0 5 4 9 9 9 19 0 132 113 158 157 32 55 63 154 63 202 0 90 -73 172 -185
207 -70 23 -310 28 -391 10z m368 -169 c47 -20 55 -49 33 -118 -25 -74 -94
-141 -169 -165 -54 -17 -58 -17 -112 0 -75 24 -144 91 -169 165 -38 116 11
143 250 137 91 -2 141 -8 167 -19z"/>
<path d="M1600 2307 c-49 -16 -133 -102 -148 -153 -28 -94 -8 -169 63 -239
101 -102 229 -102 330 0 98 97 101 222 8 325 -65 72 -158 97 -253 67z m135
-172 c50 -49 15 -135 -55 -135 -19 0 -40 9 -55 25 -16 15 -25 36 -25 55 0 19
9 40 25 55 15 16 36 25 55 25 19 0 40 -9 55 -25z"/>
<path d="M3360 2307 c-49 -16 -133 -102 -148 -153 -28 -94 -8 -169 63 -239 70
-71 145 -91 239 -63 55 16 138 99 154 154 28 94 8 169 -63 239 -70 71 -152 91
-245 62z m135 -172 c50 -49 15 -135 -55 -135 -41 0 -80 39 -80 80 0 41 39 80
80 80 19 0 40 -9 55 -25z"/>
</g>
</svg>
