<?xml version="1.0" standalone="no"?>
<!DOCTYPE svg PUBLIC "-//W3C//DTD SVG 20010904//EN"
 "http://www.w3.org/TR/2001/REC-SVG-20010904/DTD/svg10.dtd">
<svg version="1.0" xmlns="http://www.w3.org/2000/svg"
 width="512.000000pt" height="512.000000pt" viewBox="0 0 512.000000 512.000000"
 preserveAspectRatio="xMidYMid meet">

<g transform="translate(0.000000,512.000000) scale(0.100000,-0.100000)"
fill="#000000" stroke="none">
<path d="M2335 4470 c-427 -44 -964 -174 -1199 -292 -560 -280 -928 -678 -961
-1038 -9 -94 13 -225 55 -341 17 -46 87 -199 155 -339 134 -276 195 -441 240
-650 63 -289 108 -408 186 -489 54 -56 109 -81 179 -81 73 0 129 27 193 93 64
65 108 146 142 262 23 76 28 115 32 258 l6 168 107 -233 c244 -531 297 -627
391 -712 58 -52 138 -94 195 -103 21 -3 45 -13 52 -22 71 -91 176 -167 280
-203 88 -30 249 -32 332 -4 95 32 174 82 242 154 52 55 72 70 103 75 57 9 137
52 194 103 94 85 147 181 391 712 l107 233 6 -168 c4 -144 8 -181 31 -258 67
-223 192 -355 335 -355 73 1 125 25 183 87 71 77 121 191 153 353 61 308 122
486 265 771 167 332 213 469 213 634 0 160 -37 269 -148 435 -165 247 -446
475 -812 659 -207 103 -666 222 -1073 276 -140 19 -453 27 -575 15z m435 -161
c237 -22 659 -107 925 -187 l60 -18 3 -844 2 -843 -105 -232 c-381 -847 -452
-975 -569 -1038 -56 -30 -187 -31 -265 -2 -100 37 -180 131 -181 213 0 21 -9
41 -24 57 -27 27 -26 29 24 40 134 28 267 162 306 309 20 74 17 116 -11 172
-46 92 -141 133 -331 141 -253 11 -401 -50 -435 -179 -44 -164 125 -404 311
-443 50 -11 51 -13 24 -40 -15 -16 -24 -36 -24 -57 -1 -51 -32 -110 -84 -155
-64 -56 -130 -78 -236 -78 -185 0 -239 67 -490 610 -254 549 -310 681 -310
730 0 41 2 46 18 40 202 -82 414 -116 562 -91 181 32 298 123 385 299 88 177
96 330 31 535 -53 166 -50 188 44 328 142 210 175 441 96 676 l-22 68 90 0
c50 0 143 -5 206 -11z m-452 -48 c13 -22 31 -74 42 -117 45 -175 11 -341 -100
-489 -102 -138 -126 -284 -69 -425 69 -172 65 -300 -16 -460 -61 -121 -144
-181 -276 -200 -124 -18 -315 20 -487 96 l-52 23 2 707 3 707 115 33 c167 48
391 99 585 133 229 40 226 40 253 -8z m-1126 -1833 c-4 -4 -32 -10 -63 -14
-75 -9 -122 13 -160 75 -64 106 -79 122 -136 148 -52 24 -61 25 -110 15 -68
-14 -111 -35 -161 -77 l-39 -34 -61 127 c-33 70 -72 160 -86 200 -25 71 -55
246 -44 257 3 4 39 -4 79 -17 103 -31 216 -31 282 1 68 33 98 82 107 176 4 41
13 82 20 90 7 8 36 29 66 45 68 39 138 117 158 177 19 57 20 182 2 276 l-13
68 66 36 c36 20 73 40 81 44 13 7 15 -85 18 -789 1 -438 -1 -799 -6 -804z
m2980 1459 c43 -28 78 -56 78 -62 0 -7 -9 -20 -19 -29 -67 -61 -87 -226 -40
-326 86 -182 304 -242 470 -130 l44 30 28 -59 c45 -95 61 -191 48 -287 -17
-119 -47 -198 -185 -483 -169 -348 -214 -476 -282 -801 -44 -215 -112 -340
-182 -340 -81 0 -178 156 -201 322 l-8 57 31 7 c111 24 228 157 277 314 25 80
27 191 5 244 -21 51 -20 80 5 178 17 66 20 100 16 173 -7 120 -27 175 -84 224
-63 56 -136 64 -237 25 -15 -6 -16 40 -16 541 l0 547 87 -47 c48 -26 122 -70
165 -98z m-3278 -63 c3 -9 6 -48 6 -87 0 -99 -18 -131 -106 -184 -38 -23 -81
-56 -96 -74 -35 -41 -58 -110 -58 -170 0 -26 -5 -51 -12 -55 -25 -16 -154 -7
-201 14 -26 12 -47 24 -47 28 0 36 166 258 266 356 72 70 220 188 235 188 4 0
10 -7 13 -16z m3630 -225 l90 -92 -34 -29 c-61 -51 -145 -50 -205 3 -63 55
-71 148 -20 215 l26 34 27 -19 c15 -10 67 -61 116 -112z m-444 -816 c24 -52
25 -161 1 -237 -26 -86 -27 -166 -1 -242 18 -51 19 -65 9 -114 -20 -98 -85
-207 -140 -235 l-29 -16 2 408 3 408 54 28 c30 15 62 27 71 27 9 0 23 -12 30
-27z m-3285 -320 c11 -18 33 -52 48 -77 55 -88 179 -144 294 -132 l63 7 0 -60
c0 -58 -1 -60 -47 -101 -81 -71 -352 -228 -372 -216 -4 3 -13 31 -21 63 -17
80 -81 263 -125 358 l-35 78 27 30 c45 47 106 88 127 85 11 -2 29 -17 41 -35z
m390 -768 c-20 -102 -73 -212 -125 -259 -63 -57 -110 -48 -161 32 -25 40 -95
230 -87 237 2 1 44 23 93 48 50 26 135 77 190 114 l100 68 3 -80 c2 -45 -4
-115 -13 -160z m1567 202 c47 -20 55 -49 33 -117 -24 -73 -95 -143 -168 -166
-55 -17 -59 -17 -113 0 -75 24 -144 91 -169 165 -38 116 11 143 250 137 91 -2
141 -8 167 -19z m-136 -812 c58 -48 106 -75 167 -95 l38 -12 -25 -19 c-14 -11
-51 -32 -83 -47 -50 -23 -71 -27 -153 -27 -82 0 -103 4 -153 27 -32 15 -69 36
-83 47 l-24 19 49 17 c55 18 155 80 185 113 11 12 21 22 23 22 2 0 28 -20 59
-45z"/>
<path d="M3071 3369 c-24 -5 -46 -11 -49 -14 -3 -3 4 -37 17 -75 l22 -70 87 6
c100 7 192 -10 272 -51 27 -14 52 -25 54 -25 12 0 86 122 80 131 -13 21 -149
77 -226 93 -83 17 -186 19 -257 5z"/>
<path d="M3135 3106 c-101 -44 -125 -178 -46 -257 112 -113 296 -12 267 146
-18 94 -131 151 -221 111z"/>
<path d="M2462 2340 c-124 -18 -351 -96 -339 -117 2 -4 21 -36 41 -70 l37 -63
51 26 c170 86 446 86 616 0 l51 -26 37 63 c20 34 39 66 41 70 7 12 -154 83
-227 101 -83 20 -227 27 -308 16z"/>
<path d="M1785 3363 c-72 -15 -207 -72 -219 -92 -6 -9 68 -131 80 -131 2 0 27
11 54 25 80 41 172 58 272 51 l87 -6 22 70 c13 38 20 72 18 75 -11 11 -115 25
-178 24 -36 0 -97 -7 -136 -16z"/>
<path d="M1855 3106 c-101 -44 -125 -178 -46 -257 112 -113 296 -12 267 146
-18 94 -131 151 -221 111z"/>
</g>
</svg>
