<?xml version="1.0" standalone="no"?>
<!DOCTYPE svg PUBLIC "-//W3C//DTD SVG 20010904//EN"
 "http://www.w3.org/TR/2001/REC-SVG-20010904/DTD/svg10.dtd">
<svg version="1.0" xmlns="http://www.w3.org/2000/svg"
 width="512.000000pt" height="512.000000pt" viewBox="0 0 512.000000 512.000000"
 preserveAspectRatio="xMidYMid meet">

<g transform="translate(0.000000,512.000000) scale(0.100000,-0.100000)"
fill="#000000" stroke="none">
<path d="M1693 5105 c-97 -27 -174 -73 -259 -159 -66 -66 -90 -99 -128 -176
-71 -146 -89 -227 -89 -400 0 -173 18 -254 89 -400 38 -77 62 -110 128 -176
232 -233 520 -233 752 0 66 66 90 99 128 176 71 146 89 227 89 400 0 173 -18
254 -89 400 -38 77 -62 110 -128 176 -148 149 -323 205 -493 159z"/>
<path d="M3193 5105 c-97 -27 -174 -73 -259 -159 -66 -66 -90 -99 -128 -176
-71 -146 -89 -227 -89 -400 0 -173 18 -254 89 -400 38 -77 62 -110 128 -176
232 -233 520 -233 752 0 66 66 90 99 128 176 71 146 89 227 89 400 0 173 -18
254 -89 400 -38 77 -62 110 -128 176 -148 149 -323 205 -493 159z"/>
<path d="M483 3895 c-97 -27 -174 -73 -259 -159 -66 -66 -90 -99 -128 -176
-71 -146 -89 -227 -89 -400 0 -173 18 -254 89 -400 38 -77 62 -110 128 -176
232 -233 520 -233 752 0 66 66 90 99 128 176 71 146 89 227 89 400 0 173 -18
254 -89 400 -38 77 -62 110 -128 176 -148 149 -323 205 -493 159z"/>
<path d="M4403 3895 c-97 -27 -174 -73 -259 -159 -66 -66 -90 -99 -128 -176
-71 -146 -89 -227 -89 -400 0 -173 18 -254 89 -400 103 -208 307 -350 504
-350 135 0 260 58 376 174 66 66 90 99 128 176 71 146 89 227 89 400 0 173
-18 254 -89 400 -38 77 -62 110 -128 176 -148 149 -323 205 -493 159z"/>
<path d="M2395 2994 c-229 -32 -314 -51 -449 -104 -165 -65 -294 -150 -415
-273 -123 -126 -198 -254 -262 -450 -68 -206 -87 -232 -284 -389 -230 -183
-325 -308 -360 -473 -44 -210 23 -510 166 -741 70 -114 244 -293 354 -364 322
-208 710 -255 1065 -128 192 69 239 79 350 79 111 0 157 -10 350 -80 145 -52
219 -64 395 -65 211 0 350 29 520 110 188 89 397 274 504 448 143 231 210 531
166 741 -35 165 -130 290 -360 473 -197 157 -216 183 -284 389 -64 196 -139
324 -262 450 -243 248 -561 370 -989 378 -96 2 -188 1 -205 -1z"/>
</g>
</svg>
