<?xml version="1.0" standalone="no"?>
<!DOCTYPE svg PUBLIC "-//W3C//DTD SVG 20010904//EN"
 "http://www.w3.org/TR/2001/REC-SVG-20010904/DTD/svg10.dtd">
<svg version="1.0" xmlns="http://www.w3.org/2000/svg"
 width="512.000000pt" height="512.000000pt" viewBox="0 0 512.000000 512.000000"
 preserveAspectRatio="xMidYMid meet">

<g transform="translate(0.000000,512.000000) scale(0.100000,-0.100000)"
fill="#000000" stroke="none">
<path d="M1795 4634 c-75 -11 -184 -38 -242 -60 -200 -76 -325 -171 -508 -389
-175 -209 -359 -375 -578 -524 -192 -131 -314 -292 -363 -476 -25 -98 -29
-238 -10 -335 25 -123 56 -189 213 -450 77 -129 152 -257 165 -285 51 -102 88
-250 88 -355 0 -75 19 -121 69 -171 87 -87 207 -92 300 -12 29 24 49 55 72
113 18 44 36 80 39 80 4 0 19 -30 33 -67 34 -87 88 -168 175 -265 95 -106 134
-185 182 -370 48 -181 66 -221 132 -293 109 -120 293 -165 446 -110 l48 17 74
-56 c260 -196 629 -191 877 11 l56 46 48 -18 c154 -55 338 -10 447 110 67 72
87 118 132 295 47 181 85 258 181 365 87 98 142 181 176 268 14 37 29 67 33
67 4 0 15 -21 25 -48 43 -118 108 -182 196 -197 135 -23 259 90 259 236 0 103
37 252 88 354 13 28 88 156 165 285 77 129 153 264 168 300 43 102 63 218 56
330 -16 262 -138 464 -384 631 -219 149 -403 315 -578 524 -207 246 -367 357
-613 422 -85 23 -118 26 -257 27 -184 0 -211 -5 -472 -92 l-173 -57 -172 57
c-95 32 -202 64 -238 73 -64 15 -296 28 -355 19z m277 -168 c42 -8 169 -45
282 -82 l206 -69 206 69 c113 37 240 74 282 82 204 36 428 -5 608 -112 109
-64 113 -69 145 -184 47 -163 96 -388 129 -585 55 -333 62 -434 67 -1025 l4
-545 -60 -148 c-74 -182 -91 -212 -176 -307 -130 -144 -174 -231 -230 -450
-42 -166 -49 -182 -102 -231 -61 -59 -98 -74 -183 -74 -117 0 -187 49 -250
175 -75 149 -175 241 -302 278 l-58 17 0 125 0 125 73 23 c149 46 296 171 364
310 49 98 52 178 11 258 -57 108 -178 202 -325 250 -78 26 -102 29 -208 28
-104 0 -130 -4 -200 -28 -148 -51 -267 -144 -322 -249 -42 -81 -39 -160 10
-259 68 -139 215 -264 365 -310 l72 -23 0 -125 0 -125 -58 -17 c-72 -21 -167
-82 -215 -138 -20 -24 -57 -82 -82 -130 -63 -124 -128 -177 -229 -187 -63 -6
-120 8 -176 46 -68 45 -92 92 -134 257 -57 221 -102 311 -232 456 -84 93 -102
124 -175 305 l-60 148 4 545 c5 565 11 675 57 972 36 228 92 481 151 680 19
63 23 70 77 107 200 135 435 187 664 147z m-981 -547 c-10 -46 -24 -110 -31
-141 -8 -43 -23 -72 -54 -111 -160 -196 -282 -463 -336 -733 -17 -83 -23 -160
-27 -321 l-6 -213 80 0 80 0 6 208 c8 287 47 465 147 667 l40 80 -5 -75 c-21
-302 -25 -426 -25 -821 l0 -445 -60 -149 c-64 -160 -80 -185 -117 -185 -43 0
-59 29 -66 121 -15 212 -56 319 -244 631 -80 134 -159 270 -175 304 -80 170
-74 369 17 542 51 98 109 159 231 243 174 119 300 224 434 359 69 69 126 125
128 125 1 -1 -6 -40 -17 -86z m3198 -180 c64 -55 178 -143 255 -197 76 -53
158 -119 182 -146 148 -169 192 -411 113 -621 -11 -29 -91 -173 -179 -320
-202 -339 -242 -439 -257 -654 -7 -92 -23 -121 -66 -121 -37 0 -53 25 -117
185 l-60 149 0 445 c0 395 -4 519 -25 821 l-5 75 39 -80 c100 -202 140 -382
148 -667 l6 -208 80 0 79 0 -5 208 c-3 125 -11 242 -21 297 -47 262 -161 526
-308 717 -27 34 -55 72 -63 83 -8 11 -25 73 -39 138 -14 65 -29 130 -32 145
-5 21 11 8 76 -61 45 -48 135 -133 199 -188z m-1614 -1514 c133 -34 266 -133
280 -207 15 -80 -110 -236 -242 -299 -61 -30 -77 -33 -153 -33 -76 0 -92 3
-153 33 -84 40 -183 135 -221 210 -38 74 -31 108 37 175 114 112 296 161 452
121z m19 -1139 c66 -32 115 -85 157 -168 17 -35 42 -78 56 -96 l25 -33 -22
-24 c-27 -29 -116 -76 -190 -101 -77 -26 -244 -26 -320 0 -74 25 -138 59 -179
94 l-35 29 26 34 c14 19 40 62 57 96 52 103 111 159 204 189 62 20 156 12 221
-20z"/>
<path d="M1680 3267 c-49 -16 -133 -102 -148 -153 -28 -94 -8 -169 63 -239 51
-52 102 -75 165 -75 63 0 114 23 165 75 98 97 101 222 8 325 -65 72 -158 97
-253 67z m135 -172 c50 -49 15 -135 -55 -135 -41 0 -80 39 -80 80 0 41 39 80
80 80 19 0 40 -9 55 -25z"/>
<path d="M3280 3267 c-49 -16 -133 -102 -148 -153 -28 -94 -8 -169 63 -239 51
-52 102 -75 165 -75 63 0 114 23 165 75 98 97 101 222 8 325 -65 72 -158 97
-253 67z m135 -172 c16 -15 25 -36 25 -55 0 -19 -9 -40 -25 -55 -15 -16 -36
-25 -55 -25 -19 0 -40 9 -55 25 -16 15 -25 36 -25 55 0 19 9 40 25 55 15 16
36 25 55 25 19 0 40 -9 55 -25z"/>
<path d="M1680 1600 l0 -80 80 0 80 0 0 80 0 80 -80 0 -80 0 0 -80z"/>
<path d="M3280 1600 l0 -80 80 0 80 0 0 80 0 80 -80 0 -80 0 0 -80z"/>
<path d="M2000 1440 l0 -80 80 0 80 0 0 80 0 80 -80 0 -80 0 0 -80z"/>
<path d="M2960 1440 l0 -80 80 0 80 0 0 80 0 80 -80 0 -80 0 0 -80z"/>
<path d="M1760 1200 l0 -80 80 0 80 0 0 80 0 80 -80 0 -80 0 0 -80z"/>
<path d="M3200 1200 l0 -80 80 0 80 0 0 80 0 80 -80 0 -80 0 0 -80z"/>
</g>
</svg>
