<?xml version="1.0" standalone="no"?>
<!DOCTYPE svg PUBLIC "-//W3C//DTD SVG 20010904//EN"
 "http://www.w3.org/TR/2001/REC-SVG-20010904/DTD/svg10.dtd">
<svg version="1.0" xmlns="http://www.w3.org/2000/svg"
 width="512.000000pt" height="512.000000pt" viewBox="0 0 512.000000 512.000000"
 preserveAspectRatio="xMidYMid meet">

<g transform="translate(0.000000,512.000000) scale(0.100000,-0.100000)"
fill="#000000" stroke="none">
<path d="M1205 4986 c-43 -14 -591 -318 -614 -341 -9 -8 -15 -31 -14 -52 1
-43 31 -73 72 -73 15 0 147 68 311 160 168 94 295 160 311 160 l26 0 -19 -82
c-79 -341 -221 -754 -353 -1023 -135 -278 -267 -431 -390 -450 -51 -9 -75 9
-143 109 -147 212 -256 526 -232 671 21 127 86 213 220 291 104 59 123 97 75
148 -34 36 -64 33 -154 -16 -232 -128 -337 -347 -286 -598 91 -447 391 -857
642 -878 l56 -5 -7 -61 c-3 -33 -9 -128 -12 -211 -11 -258 18 -357 100 -341
52 11 62 28 56 104 -9 125 -2 366 14 471 l16 104 68 71 c118 125 227 311 347
596 59 139 188 520 221 648 17 69 20 74 67 104 76 49 222 105 337 129 142 29
356 29 523 0 l117 -21 118 21 c165 29 380 29 520 0 115 -24 248 -74 331 -124
l54 -32 37 -130 c155 -545 373 -1014 561 -1205 l58 -59 15 -103 c35 -242 30
-428 -15 -559 -99 -289 -452 -719 -809 -983 -85 -63 -100 -82 -100 -121 0 -55
57 -87 109 -61 49 26 229 173 331 270 265 255 450 493 560 721 78 161 94 231
95 420 0 88 -4 203 -8 256 l-9 96 55 5 c252 21 560 445 643 885 38 201 -17
370 -163 503 -74 68 -379 240 -424 240 -32 0 -79 -38 -79 -64 0 -24 20 -61 40
-74 10 -6 80 -46 157 -88 76 -42 153 -88 171 -101 31 -23 32 -26 32 -96 0
-164 -103 -451 -231 -647 -60 -91 -192 -220 -258 -253 -89 -44 -102 -40 -161
51 -69 104 -205 384 -273 562 -112 292 -236 738 -223 801 13 64 69 109 136
109 38 0 72 -15 225 -100 99 -55 190 -100 203 -100 30 0 72 43 72 74 0 14 -10
36 -23 50 -28 31 -337 205 -396 223 -96 29 -194 5 -272 -65 -63 -57 -90 -110
-97 -189 -2 -35 -6 -63 -7 -63 -1 0 -35 14 -76 31 -233 96 -569 122 -837 65
-52 -11 -73 -11 -127 0 -278 58 -595 33 -838 -67 -38 -16 -71 -29 -72 -29 -1
0 -5 29 -7 65 -15 179 -202 305 -373 251z"/>
<path d="M1773 4080 c-135 -25 -273 -112 -273 -174 0 -34 41 -76 73 -76 13 0
44 14 67 31 68 50 136 69 240 69 104 0 172 -19 240 -69 52 -37 83 -39 115 -6
32 31 32 66 -1 104 -78 93 -296 150 -461 121z"/>
<path d="M3133 4080 c-133 -24 -273 -113 -273 -174 0 -34 41 -76 73 -76 13 0
44 14 67 31 68 50 136 69 240 69 104 0 172 -19 240 -69 52 -37 83 -39 115 -6
32 31 32 66 -1 104 -78 93 -296 150 -461 121z"/>
<path d="M1709 3457 c-25 -7 -66 -25 -92 -40 -78 -46 -96 -91 -56 -141 27 -34
73 -35 118 -2 75 56 205 58 283 6 53 -36 97 -39 126 -7 48 51 18 108 -83 158
-56 27 -78 32 -158 35 -56 3 -110 -1 -138 -9z"/>
<path d="M3179 3457 c-57 -16 -133 -61 -154 -89 -22 -32 -19 -71 8 -96 32 -30
74 -27 125 8 78 52 208 50 283 -6 45 -33 91 -32 118 2 44 56 17 105 -84 155
-56 27 -78 32 -158 35 -56 3 -110 -1 -138 -9z"/>
<path d="M2408 3160 c-204 -19 -285 -72 -324 -209 -33 -112 0 -268 71 -330 38
-33 152 -82 253 -107 l72 -18 0 -182 0 -182 -72 -16 c-129 -28 -209 -37 -327
-37 -215 -1 -327 46 -439 182 -62 76 -151 251 -187 369 -34 112 -46 133 -76
144 -41 14 -78 0 -95 -38 -16 -31 -15 -37 25 -155 43 -129 118 -285 176 -367
46 -65 144 -163 194 -194 27 -17 52 -47 79 -95 89 -158 130 -306 139 -509 7
-161 21 -156 -127 -51 -153 109 -236 180 -391 334 -163 164 -246 264 -355 428
-80 121 -103 138 -151 112 -32 -17 -47 -50 -39 -82 3 -14 37 -71 74 -128 229
-348 555 -656 964 -912 l27 -17 3 -293 3 -293 38 -76 c65 -132 213 -241 394
-290 111 -30 335 -30 446 0 181 49 329 158 394 290 l38 76 6 520 c6 488 8 526
28 605 41 161 131 349 177 369 41 19 173 153 218 221 66 99 123 220 168 353
35 106 38 123 27 149 -13 34 -36 49 -72 49 -44 0 -64 -30 -107 -160 -91 -276
-232 -463 -389 -515 -118 -39 -327 -36 -528 6 l-103 22 0 181 0 182 73 17 c93
22 222 79 258 113 51 49 74 117 74 224 0 179 -65 261 -234 295 -87 18 -293 26
-403 15z m397 -172 c49 -13 50 -14 47 -48 -7 -82 -75 -134 -220 -166 -75 -17
-77 -17 -209 9 -73 15 -149 33 -167 41 -33 14 -35 17 -29 53 8 54 30 92 59
103 79 31 416 36 519 8z m-325 -1759 l0 -391 29 -29 c16 -16 39 -29 51 -29 12
0 35 13 51 29 l29 29 0 391 0 391 88 0 c107 0 179 -19 249 -67 95 -64 93 -53
93 -539 0 -497 0 -495 -88 -584 -102 -101 -238 -150 -423 -150 -176 0 -312 46
-411 138 -97 91 -93 64 -96 570 -3 418 -2 445 16 486 40 89 162 145 320 146
l92 0 0 -391z"/>
</g>
</svg>
