<?xml version="1.0" standalone="no"?>
<!DOCTYPE svg PUBLIC "-//W3C//DTD SVG 20010904//EN"
 "http://www.w3.org/TR/2001/REC-SVG-20010904/DTD/svg10.dtd">
<svg version="1.0" xmlns="http://www.w3.org/2000/svg"
 width="512.000000pt" height="512.000000pt" viewBox="0 0 512.000000 512.000000"
 preserveAspectRatio="xMidYMid meet">

<g transform="translate(0.000000,512.000000) scale(0.100000,-0.100000)"
fill="#000000" stroke="none">
<path d="M2499 4787 c-47 -18 35 34 -1209 -761 -591 -378 -1087 -700 -1103
-717 -27 -29 -27 -30 -27 -175 0 -225 9 -234 235 -234 l145 0 0 -1150 c0
-1139 0 -1150 21 -1205 25 -67 94 -141 164 -175 l50 -25 1780 0 1780 0 47 22
c98 45 167 135 188 243 6 33 10 467 10 1171 l0 1119 145 0 c222 0 228 6 233
220 3 138 3 146 -20 178 -16 23 -343 237 -1127 738 -607 388 -1122 715 -1145
729 -52 30 -120 39 -167 22z m1155 -922 c897 -574 1076 -692 1076 -710 0 -21
-5 -22 -112 -28 -124 -5 -159 -15 -201 -55 -67 -63 -61 34 -67 -1270 l-5
-1184 -28 -24 -28 -24 -1733 0 -1733 0 -26 26 -27 26 -2 1177 c-3 1127 -4
1177 -22 1211 -48 90 -94 112 -244 118 -113 5 -113 5 -110 29 3 20 176 135
1078 713 591 379 1082 688 1091 686 9 -2 501 -313 1093 -691z"/>
<path d="M2879 3200 c-156 -27 -289 -182 -305 -355 -16 -175 79 -330 234 -380
93 -31 200 -5 297 72 205 162 176 538 -49 638 -62 28 -116 36 -177 25z m93
-240 c32 -25 52 -95 43 -150 -8 -48 -51 -102 -95 -120 -84 -35 -149 82 -105
188 37 87 105 123 157 82z"/>
<path d="M2003 3154 c-60 -22 -124 -83 -164 -156 -33 -61 -34 -66 -34 -173 1
-97 4 -116 27 -165 35 -74 68 -116 127 -161 65 -48 136 -71 216 -71 244 2 379
286 254 534 -38 75 -108 146 -174 177 -65 30 -190 38 -252 15z m178 -235 c75
-53 87 -219 20 -254 -69 -35 -161 41 -169 140 -10 123 60 177 149 114z"/>
<path d="M3463 2731 c-143 -53 -248 -179 -271 -325 -23 -148 56 -284 197 -337
169 -64 394 39 484 220 29 59 32 74 32 156 0 76 -4 98 -25 138 -28 56 -80 106
-142 138 -61 32 -202 37 -275 10z m205 -238 c16 -22 15 -78 -2 -111 -32 -61
-96 -102 -161 -102 -47 0 -64 8 -81 41 -47 91 91 227 201 197 17 -4 36 -16 43
-25z"/>
<path d="M1387 2670 c-68 -26 -133 -83 -165 -143 -24 -46 -27 -63 -27 -147 0
-88 2 -99 33 -155 84 -155 233 -245 388 -232 119 9 219 74 270 174 24 49 29
70 29 133 0 63 -5 85 -32 142 -54 115 -150 199 -262 232 -73 21 -174 20 -234
-4z m227 -244 c40 -30 76 -92 76 -130 0 -35 -52 -76 -96 -76 -81 0 -174 86
-174 159 0 20 4 41 8 47 29 43 130 43 186 0z"/>
<path d="M2425 2325 c-265 -49 -483 -217 -600 -459 -64 -134 -80 -206 -79
-361 0 -105 4 -146 22 -210 56 -197 161 -337 277 -370 82 -24 148 -15 296 42
121 46 127 47 234 47 110 0 110 0 225 -49 107 -46 121 -49 200 -50 71 0 93 4
134 25 102 52 211 207 253 360 27 99 25 310 -5 413 -122 427 -534 691 -957
612z m343 -248 c238 -83 394 -295 409 -552 8 -142 -28 -262 -105 -347 -45 -50
-64 -49 -210 8 -150 60 -228 72 -367 56 -80 -9 -130 -21 -208 -51 -177 -70
-190 -67 -250 46 -88 169 -86 382 6 558 43 81 164 202 247 245 144 75 329 90
478 37z"/>
</g>
</svg>
