<?xml version="1.0" standalone="no"?>
<!DOCTYPE svg PUBLIC "-//W3C//DTD SVG 20010904//EN"
 "http://www.w3.org/TR/2001/REC-SVG-20010904/DTD/svg10.dtd">
<svg version="1.0" xmlns="http://www.w3.org/2000/svg"
 width="512.000000pt" height="512.000000pt" viewBox="0 0 512.000000 512.000000"
 preserveAspectRatio="xMidYMid meet">

<g transform="translate(0.000000,512.000000) scale(0.100000,-0.100000)"
fill="#000000" stroke="none">
<path d="M2226 4390 c-67 -17 -156 -72 -200 -123 l-43 -49 -62 13 c-125 24
-261 -14 -355 -101 -59 -54 -113 -161 -122 -240 -6 -54 -9 -60 -38 -71 -88
-35 -162 -114 -187 -200 -10 -32 -17 -38 -66 -53 -84 -27 -260 -120 -338 -178
-259 -195 -445 -479 -521 -796 -20 -82 -33 -114 -64 -154 -153 -202 -32 -490
217 -515 33 -4 53 -11 53 -18 0 -7 20 -36 45 -63 75 -84 186 -105 284 -54 l42
22 41 -21 c74 -38 175 -35 275 7 9 4 12 -69 15 -298 3 -291 4 -305 26 -348 35
-72 75 -114 144 -151 58 -31 70 -34 148 -34 50 1 94 6 108 13 21 12 27 9 81
-47 40 -42 80 -71 127 -94 63 -29 78 -32 164 -32 86 0 101 3 160 31 36 17 76
40 89 51 23 18 28 19 69 6 63 -18 113 -16 182 7 l60 20 60 -20 c69 -23 119
-25 182 -7 41 13 46 12 69 -6 13 -11 53 -34 89 -51 59 -28 74 -31 160 -31 86
0 101 3 164 32 47 23 87 52 127 94 54 56 60 59 81 47 14 -7 57 -12 108 -12 72
0 93 4 136 26 75 39 107 70 145 140 l34 63 3 303 c3 229 6 302 15 298 99 -42
202 -44 277 -6 l39 20 41 -21 c97 -51 196 -34 278 47 28 29 52 59 52 67 0 10
16 16 53 20 107 11 195 71 247 169 30 55 34 72 35 138 0 87 -20 149 -70 214
-24 32 -40 71 -60 152 -33 131 -71 231 -131 341 -94 174 -253 355 -404 462
-83 59 -244 142 -325 167 -47 15 -52 20 -68 64 -27 75 -78 133 -150 171 l-65
33 -6 58 c-9 77 -64 184 -122 238 -94 87 -230 125 -355 101 l-62 -13 -44 51
c-31 35 -67 62 -121 88 -72 36 -81 38 -172 38 -90 0 -101 -2 -168 -36 l-72
-35 -69 34 c-56 28 -82 34 -147 37 -43 3 -96 0 -118 -5z m166 -162 c22 -6 60
-30 85 -52 36 -32 54 -41 83 -41 29 0 47 9 83 41 74 66 163 81 247 43 56 -25
96 -62 122 -114 11 -22 27 -48 36 -57 21 -24 72 -23 122 3 96 50 197 34 275
-45 63 -63 79 -112 70 -205 -9 -89 7 -111 90 -122 62 -8 95 -27 129 -73 21
-27 21 -34 24 -1184 2 -793 0 -1169 -8 -1194 -5 -20 -26 -50 -45 -67 -61 -53
-144 -54 -210 -1 -67 53 -122 35 -155 -49 -21 -52 -69 -101 -125 -127 -93 -44
-176 -27 -266 53 -33 29 -69 53 -80 53 -11 0 -42 -11 -69 -25 -52 -27 -93 -31
-134 -15 l-26 10 0 153 0 153 62 28 c71 33 158 110 195 174 32 55 63 153 63
201 0 90 -73 172 -185 207 -68 22 -274 30 -361 15 -189 -33 -277 -133 -246
-278 32 -155 148 -287 295 -336 15 -6 17 -23 17 -162 l0 -155 -26 -10 c-42
-16 -87 -11 -136 15 -26 14 -56 25 -67 25 -11 0 -47 -24 -80 -53 -90 -80 -173
-97 -266 -53 -56 26 -104 75 -125 127 -34 86 -86 101 -160 47 -38 -28 -53 -33
-101 -33 -62 0 -95 17 -133 69 -21 27 -21 31 -21 1206 0 1175 0 1179 21 1206
34 46 67 65 129 73 83 11 99 33 90 122 -9 93 7 142 70 205 78 79 179 95 275
45 50 -26 101 -27 122 -3 9 9 25 36 37 59 52 104 171 155 283 121z m-1192
-1024 l0 -206 -56 -56 c-62 -63 -126 -156 -172 -247 -32 -64 -78 -201 -84
-250 -3 -28 -1 -29 57 -42 93 -19 87 -23 123 90 18 57 54 141 80 187 l47 83 3
-217 2 -218 -30 -28 c-38 -36 -39 -72 -3 -125 36 -52 39 -138 7 -181 -39 -52
-71 -69 -133 -69 -52 0 -63 4 -106 38 -64 50 -95 49 -146 -3 -48 -48 -87 -53
-124 -15 -18 17 -25 35 -25 63 0 28 -7 45 -24 61 -23 21 -30 23 -94 16 -82 -8
-128 8 -167 60 -51 67 -45 139 18 211 38 43 45 60 73 173 17 69 46 163 64 208
113 284 326 513 594 639 39 18 77 33 84 34 9 0 12 -48 12 -206z m2817 171
c336 -155 572 -464 664 -870 20 -89 27 -105 65 -148 64 -72 71 -145 19 -212
-39 -51 -85 -68 -165 -60 -65 7 -70 5 -94 -19 -18 -17 -26 -36 -26 -61 0 -46
-36 -85 -79 -85 -22 0 -41 11 -70 40 -51 52 -82 53 -146 3 -43 -34 -54 -38
-106 -38 -62 0 -94 17 -133 69 -32 43 -29 129 7 181 36 53 35 89 -3 125 l-30
28 0 219 0 218 35 -55 c42 -66 89 -177 110 -255 8 -32 17 -60 20 -63 3 -3 38
1 78 9 72 14 72 14 69 44 -6 51 -53 187 -87 255 -46 90 -102 170 -169 240
l-56 59 0 206 c0 138 3 205 11 205 6 0 44 -16 86 -35z m-1265 -1558 c47 -20
55 -49 33 -118 -25 -74 -94 -141 -169 -165 -53 -17 -59 -17 -111 0 -74 23
-146 93 -169 164 -39 117 10 144 249 138 91 -2 141 -8 167 -19z"/>
<path d="M2320 3987 c-49 -16 -133 -102 -148 -153 -22 -74 -21 -74 66 -74 77
0 77 0 92 33 9 18 27 36 43 41 39 14 79 -3 97 -41 15 -33 15 -33 93 -33 65 0
77 3 77 16 0 76 -80 182 -157 208 -53 18 -112 19 -163 3z"/>
<path d="M3040 3667 c-49 -16 -133 -102 -148 -153 -22 -74 -21 -74 66 -74 77
0 77 0 92 33 18 38 58 55 98 41 15 -5 33 -23 42 -41 15 -33 15 -33 93 -33 65
0 77 3 77 16 0 76 -80 182 -157 208 -53 18 -112 19 -163 3z"/>
<path d="M1920 3587 c-49 -16 -133 -102 -148 -153 -22 -74 -21 -74 66 -74 77
0 77 0 92 33 9 18 27 36 43 41 39 14 79 -3 97 -41 15 -33 15 -33 93 -33 65 0
77 3 77 16 0 76 -80 182 -157 208 -53 18 -112 19 -163 3z"/>
<path d="M2015 2786 c-101 -44 -125 -178 -46 -257 65 -65 157 -65 222 0 124
124 -15 327 -176 257z"/>
<path d="M2975 2786 c-101 -44 -125 -178 -46 -257 65 -65 157 -65 222 0 124
124 -15 327 -176 257z"/>
<path d="M2485 2391 c-46 -12 -108 -46 -144 -80 -31 -29 -34 -30 -62 -16 -106
56 -299 4 -370 -99 -21 -31 -28 -34 -89 -39 -154 -13 -273 -121 -295 -270 l-7
-47 80 0 80 0 6 35 c9 46 62 100 114 116 35 10 52 10 93 0 62 -16 89 -2 120
65 32 68 79 99 150 99 50 0 62 -4 100 -34 69 -56 120 -47 160 30 29 57 73 84
139 84 66 0 110 -27 139 -84 40 -77 91 -86 160 -30 38 30 50 34 100 34 70 0
111 -27 146 -96 35 -69 63 -85 120 -69 51 14 97 8 142 -20 32 -19 73 -84 73
-115 0 -12 15 -15 81 -15 l81 0 -7 48 c-4 26 -21 73 -38 105 -52 98 -140 154
-257 164 -61 5 -68 8 -89 39 -46 67 -165 124 -255 124 -23 -1 -65 -9 -95 -19
l-55 -19 -17 22 c-10 12 -45 37 -78 55 -65 34 -164 49 -226 32z"/>
</g>
</svg>
