<?xml version="1.0" standalone="no"?>
<!DOCTYPE svg PUBLIC "-//W3C//DTD SVG 20010904//EN"
 "http://www.w3.org/TR/2001/REC-SVG-20010904/DTD/svg10.dtd">
<svg version="1.0" xmlns="http://www.w3.org/2000/svg"
 width="512.000000pt" height="512.000000pt" viewBox="0 0 512.000000 512.000000"
 preserveAspectRatio="xMidYMid meet">

<g transform="translate(0.000000,512.000000) scale(0.100000,-0.100000)"
fill="#000000" stroke="none">
<path d="M1456 4464 c-32 -8 -80 -25 -107 -38 -27 -14 -270 -177 -541 -363
-527 -361 -596 -417 -656 -530 -66 -126 -87 -276 -57 -418 16 -77 172 -407
218 -460 88 -105 276 -123 377 -38 l30 25 0 -264 c0 -278 12 -409 49 -556 87
-339 292 -654 566 -867 167 -130 396 -260 515 -292 97 -27 299 -23 405 7 157
44 214 52 340 47 80 -4 145 -12 195 -26 252 -72 429 -65 620 25 41 19 88 45
105 58 16 12 66 44 110 70 355 214 622 574 726 978 37 147 49 278 49 556 l0
264 31 -26 c43 -36 130 -60 196 -53 62 6 143 48 180 92 46 53 202 383 218 460
29 139 13 271 -50 402 -62 127 -113 170 -663 546 -271 186 -515 349 -543 363
-28 14 -86 33 -129 42 -67 14 -91 14 -161 4 -47 -7 -109 -24 -143 -40 l-61
-28 -55 22 c-211 85 -452 64 -622 -53 l-37 -25 -30 21 c-90 64 -240 110 -359
111 -78 0 -199 -24 -272 -55 l-55 -23 -47 24 c-101 51 -229 65 -342 38z m217
-160 c16 -6 14 -11 -21 -48 -21 -22 -92 -109 -157 -193 -64 -84 -125 -155
-134 -157 -187 -54 -275 -89 -395 -160 -272 -161 -476 -402 -592 -699 l-38
-98 -33 66 c-101 198 -76 400 65 538 26 25 270 199 542 386 544 374 562 385
680 377 36 -3 73 -8 83 -12z m610 1 c76 -20 148 -57 199 -103 56 -51 100 -51
156 0 78 71 204 118 313 118 72 0 196 -32 262 -67 28 -16 75 -50 105 -77 47
-44 697 -866 781 -989 43 -64 86 -158 113 -254 22 -75 23 -92 23 -488 0 -387
-2 -416 -23 -512 -56 -255 -172 -488 -340 -679 -26 -30 -50 -54 -53 -54 -3 0
0 28 7 63 27 125 9 325 -44 482 l-28 83 74 57 c214 166 348 463 329 729 -12
158 -68 279 -186 397 -206 206 -520 246 -771 99 -150 -88 -242 -214 -310 -425
-12 -38 -26 -74 -30 -79 -5 -4 -32 0 -62 10 -78 28 -398 28 -476 0 -30 -10
-57 -14 -62 -10 -4 5 -20 47 -35 94 -55 168 -131 285 -238 366 -261 196 -610
173 -838 -55 -84 -84 -126 -151 -161 -256 -32 -97 -32 -282 -1 -400 53 -196
157 -355 307 -472 l72 -55 -28 -82 c-54 -161 -70 -353 -42 -516 l6 -35 -48 54
c-170 188 -289 424 -346 684 -21 96 -23 125 -23 512 0 396 1 413 23 488 27 96
70 190 113 254 84 123 734 945 781 989 131 119 323 170 481 129z m1368 -5 c52
-16 158 -85 559 -361 272 -187 516 -361 542 -386 141 -139 166 -339 65 -540
l-34 -67 -13 40 c-23 71 -81 195 -127 272 -184 313 -482 538 -844 637 -56 16
-57 16 -174 168 -65 84 -136 171 -158 194 l-40 42 34 9 c55 16 123 13 190 -8z
m-2599 -807 c-76 -98 -156 -205 -177 -238 -35 -54 -105 -204 -105 -225 0 -5
-35 -68 -77 -140 -80 -139 -111 -170 -168 -170 -16 1 -40 6 -52 13 l-21 12 23
90 c45 177 120 334 226 471 64 83 202 210 294 270 78 51 186 106 193 99 2 -2
-59 -83 -136 -182z m2995 131 c222 -124 423 -343 523 -572 41 -93 90 -249 90
-288 0 -44 -71 -59 -126 -25 -21 13 -55 61 -107 151 -42 72 -77 135 -77 140 0
21 -70 171 -105 225 -21 33 -100 140 -176 238 -77 97 -139 179 -139 182 0 8
52 -15 117 -51z m-2356 -594 c71 -13 165 -60 221 -110 70 -61 113 -135 162
-279 41 -119 44 -132 28 -138 -133 -48 -253 -110 -352 -184 -89 -66 -221 -204
-270 -282 -19 -31 -40 -56 -46 -57 -19 0 -134 111 -180 176 -111 155 -159 372
-119 529 22 83 61 149 126 214 113 114 269 161 430 131z m1931 -1 c172 -36
319 -175 363 -344 40 -157 -8 -374 -119 -529 -46 -65 -161 -176 -180 -176 -6
1 -27 26 -46 57 -49 78 -181 216 -270 282 -99 74 -219 136 -352 184 -15 5 -12
20 27 138 50 147 85 209 154 272 119 106 270 148 423 116z m-840 -576 c101
-46 178 -128 178 -191 0 -47 -54 -102 -101 -102 -56 -1 -113 -33 -148 -84 -41
-59 -75 -76 -151 -76 -75 0 -110 17 -147 72 -32 49 -99 88 -151 88 -48 0 -102
54 -102 102 0 76 113 179 227 208 21 5 108 8 193 7 134 -2 161 -6 202 -24z
m-752 -307 c36 -76 139 -146 214 -146 13 0 34 -17 56 -47 32 -42 105 -91 163
-107 14 -5 17 -18 17 -90 l0 -84 -37 -12 c-61 -19 -132 -70 -173 -122 -38 -48
-50 -74 -89 -201 -31 -101 -72 -155 -244 -326 l-155 -153 -53 28 c-108 60
-213 189 -260 324 -32 92 -33 286 -1 413 66 266 225 480 463 625 l64 39 6 -48
c4 -26 17 -68 29 -93z m1250 41 c133 -98 259 -260 321 -409 65 -157 92 -349
69 -487 -26 -158 -148 -333 -279 -405 l-53 -28 -160 158 c-176 177 -207 217
-238 319 -40 129 -52 155 -90 203 -41 52 -112 103 -172 122 l-38 12 0 84 c0
72 3 85 18 90 61 18 128 62 160 106 23 31 44 48 57 48 12 0 43 8 70 17 94 32
175 142 175 240 l0 32 53 -30 c28 -17 77 -49 107 -72z m-635 -686 c64 -28 100
-78 130 -178 47 -153 84 -212 238 -369 75 -78 137 -144 137 -148 0 -11 -123
-6 -190 8 -36 8 -101 24 -145 36 -55 15 -121 23 -210 27 -138 6 -226 -5 -375
-47 -77 -22 -260 -39 -260 -25 0 4 62 71 138 149 153 157 190 216 237 369 40
134 109 197 215 197 25 0 63 -9 85 -19z"/>
<path d="M2080 3920 l0 -80 73 0 c127 0 241 -41 332 -120 61 -52 88 -52 151 1
96 80 205 119 331 119 l73 0 0 80 0 80 -77 0 c-134 0 -268 -39 -365 -107 l-37
-25 -30 21 c-94 67 -240 111 -373 111 l-78 0 0 -80z"/>
<path d="M1500 2944 c-227 -82 -293 -362 -125 -529 66 -66 125 -90 225 -89 72
0 93 4 136 26 75 39 107 70 145 140 30 57 33 71 34 148 0 100 -24 159 -90 225
-82 82 -222 116 -325 79z m163 -158 c103 -43 128 -177 48 -257 -65 -65 -157
-65 -222 0 -124 123 13 325 174 257z"/>
<path d="M3420 2944 c-142 -52 -229 -183 -218 -327 26 -318 443 -407 597 -127
33 60 36 71 36 150 0 78 -3 91 -34 148 -58 106 -144 161 -265 168 -50 3 -84
-1 -116 -12z m163 -158 c103 -43 128 -177 48 -257 -65 -65 -157 -65 -222 0
-124 123 13 325 174 257z"/>
<path d="M1920 1840 l0 -80 80 0 80 0 0 80 0 80 -80 0 -80 0 0 -80z"/>
<path d="M1600 1680 l0 -80 80 0 80 0 0 80 0 80 -80 0 -80 0 0 -80z"/>
<path d="M1840 1440 l0 -80 80 0 80 0 0 80 0 80 -80 0 -80 0 0 -80z"/>
<path d="M3040 1840 l0 -80 80 0 80 0 0 80 0 80 -80 0 -80 0 0 -80z"/>
<path d="M3360 1680 l0 -80 80 0 80 0 0 80 0 80 -80 0 -80 0 0 -80z"/>
<path d="M3120 1440 l0 -80 80 0 80 0 0 80 0 80 -80 0 -80 0 0 -80z"/>
</g>
</svg>
